<?xml version="1.0" encoding="UTF-8"?>
<svg xmlns="http://www.w3.org/2000/svg" version="1.1" viewBox="0 0 512 512">
  <defs>
    <style>
      .cls-1 {
        fill: #191e3b;
      }

      .cls-2 {
        fill: #fddb32;
      }
    </style>
  </defs>
  <!-- Generator: Adobe Illustrator 28.6.0, SVG Export Plug-In . SVG Version: 1.2.0 Build 709)  -->
  <g>
    <g id="Layer_1">
      <g id="layer1">
        <g id="g3760">
          <g id="g3734">
            <path id="rect3505" class="cls-1" d="M127.44,212.33c-2.97,0-5.37,2.39-5.37,5.37v65.54c0,2.97,2.4,5.37,5.37,5.37h41.21c.78,0,1.4-.63,1.4-1.4v-7.52c0-.78-.63-1.4-1.4-1.4h-35.04v-23.97h31.51c.78,0,1.4-.63,1.4-1.4v-7.1c0-.78-.63-1.4-1.4-1.4h-31.51v-21.98h35.04c.78,0,1.4-.63,1.4-1.4v-7.28c0-.78-.63-1.4-1.4-1.4h-41.21Z"/>
            <path id="rect3515" class="cls-1" d="M266.56,231.43c-9.81,0-15.89,3.38-19.97,8.99v-5.87c0-.78-.63-1.4-1.4-1.4h-8.49c-.78,0-1.4.63-1.4,1.4v71.55c0,.78.63,1.4,1.4,1.4h8.63c.78,0,1.4-.63,1.4-1.4v-24.48c3.78,5.45,9.91,8.67,19.82,8.67,16.67,0,27.05-13.2,27.05-29.45,0-16.26-10.17-29.42-27.05-29.42h0ZM264.13,240.89c11.99,0,17.89,8.93,17.89,19.95,0,11.02-5.9,19.95-17.89,19.95s-17.89-8.93-17.89-19.95c0-11.02,5.9-19.95,17.89-19.95Z"/>
            <path id="rect3532" class="cls-1" d="M433.99,233.15h8.53c.78,0,1.4.63,1.4,1.4v52.65c0,.78-.63,1.4-1.4,1.4h-8.53c-.78,0-1.4-.63-1.4-1.4v-52.65c0-.78.63-1.4,1.4-1.4h0Z"/>
            <path id="rect3534" class="cls-1" d="M433.87,212.3h8.78c.78,0,1.4.63,1.4,1.4v8.78c0,.78-.63,1.4-1.4,1.4h-8.78c-.78,0-1.4-.63-1.4-1.4v-8.78c0-.78.63-1.4,1.4-1.4Z"/>
            <path id="path3546" class="cls-1" d="M389.1,290.29c9.81,0,15.89-3.38,19.97-8.99v5.9c0,.78.63,1.4,1.4,1.4h8.49c.78,0,1.4-.63,1.4-1.4v-73.47c0-.78-.63-1.4-1.4-1.4h-8.63c-.78,0-1.4.63-1.4,1.4v26.67c-4.06-5.31-9.91-8.98-19.82-8.98-16.67,0-27.05,13.2-27.05,29.45,0,16.26,10.17,29.42,27.05,29.42h0ZM391.52,280.83c-11.99,0-17.89-8.93-17.89-19.95,0-11.02,5.9-19.95,17.89-19.95s17.89,8.93,17.89,19.95c0,11.02-5.9,19.95-17.89,19.95Z"/>
            <path id="path3557" class="cls-1" d="M480.73,231.46c-16.89,0-27.05,13.16-27.05,29.42s10.17,29.42,27.05,29.42c9.81,0,15.89-3.38,19.97-8.99v5.9c0,.78.63,1.4,1.4,1.4h8.49c.78,0,1.4-.63,1.4-1.4v-52.65c0-.78-.63-1.4-1.4-1.4h-8.49c-.78,0-1.4.63-1.4,1.4v5.9c-4.08-5.61-10.17-8.99-19.97-8.99ZM483.16,240.93c11.99,0,17.9,8.93,17.9,19.95,0,11.02-5.9,19.95-17.9,19.95s-17.89-8.93-17.89-19.95c0-11.02,5.9-19.95,17.89-19.95Z"/>
            <path id="rect3567" class="cls-1" d="M179.14,233.15c-1.21,0-1.43.96-.88,1.72l18.06,24.73-19.82,27.3c-.55.76-.33,1.72.88,1.72h9.78c.85,0,1.29-.29,1.57-.71l13.51-19.93,14.07,19.93c.29.41.72.71,1.57.71h10.15c1.21,0,1.43-.96.88-1.72l-19.94-27.3,17.95-24.73c.55-.76.33-1.72-.88-1.72h-9.59c-.85,0-1.29.29-1.57.71l-11.85,17.42-12.25-17.42c-.29-.41-.72-.71-1.57-.71h-10.07Z"/>
            <path id="path3599" class="cls-1" d="M327.85,231.43c-16.98,0-27.2,12.21-27.2,29.43,0,19,12.08,29.43,27.2,29.43,18.27,0,25.47-10.75,25.88-11.15.46-.46.34-1.33-.05-1.71l-5.28-5.18c-.39-.38-1.13-.44-1.64.08-.39.39-6.82,8.52-17.35,8.52-11.2,0-16.71-6.86-17.45-16.96h41.72c1.29,0,1.36-1.15,1.37-1.91.09-20.51-11.84-30.56-27.19-30.56ZM327.89,240.35c10.27,0,14.57,6.18,15.48,14.97h-31.01c1.22-8.62,5.75-14.97,15.53-14.97Z"/>
          </g>
          <g id="g3744">
            <path id="rect3636" class="cls-2" d="M19.09,204.49h53.9c10.58,0,19.09,8.51,19.09,19.09v53.9c0,10.58-8.51,19.09-19.09,19.09H19.09c-10.58,0-19.09-8.51-19.09-19.09v-53.9c0-10.58,8.51-19.09,19.09-19.09Z"/>
            <g id="g3738">
              <path id="path3707" class="cls-1" d="M25.75,220.98c-.86,0-1.4.2-1.85.65l-9.2,9.2c-.17.17-.27.4-.27.64,0,.5.41.91.91.91h39.89l-24.52,24.52c-.48.48-.76.76-.76,1.71v6.45c0,.39.18.73.43.98.26.25.59.43.98.43h6.45c.95,0,1.23-.28,1.71-.76l24.52-24.52v39.89c0,.5.41.91.91.91.24,0,.47-.1.64-.27l9.2-9.2c.45-.45.65-.99.65-1.85v-43.56c0-3.4-2.75-6.15-6.15-6.15H25.75Z"/>
              <path id="rect3709" class="cls-1" d="M17.93,268.28h8.85c.74,0,1.34.6,1.34,1.34v8.91c0,.74-.6,1.34-1.34,1.34h-8.85c-.74,0-1.34-.6-1.34-1.34v-8.91c0-.74.6-1.34,1.34-1.34Z"/>
            </g>
          </g>
        </g>
      </g>
    </g>
  </g>
</svg>